<svg xmlns="http://www.w3.org/2000/svg" width="1000" height="1000" viewBox="0 0 1000 1000">
  <defs>
    <style>
      .cls-1 {
        fill: #fff6ed;
      }

      .cls-2 {
        fill: #5e3085;
      }

      .cls-2, .cls-3 {
        fill-rule: evenodd;
      }

      .cls-3 {
        fill: #322bff;
      }
    </style>
  </defs>
  <circle id="Эллипс_1" data-name="Эллипс 1" class="cls-1" cx="500" cy="530" r="470"/>
  <path id="Прямоугольник_1_копия" data-name="Прямоугольник 1 копия" class="cls-2" d="M775.409,148.486c75.169,50.616,118.947,118.575,141.8,167.5a6.018,6.018,0,0,1,.072,4.152c-23.963,60.668-50.909,127.918-77.016,192.179-26.24,64.6-51.641,126.208-75.6,183.422-47.825,114.126-90.523,212.5-131.257,302.633a3.452,3.452,0,0,1-2.988,1.627H438.4c-1.7,0-2.737-.944-2.3-2.111C479.879,880.989,529.839,753.2,586.07,611c28.278-71.5,58.623-147.925,90.484-227.759,31.678-79.317,64.871-162.048,94.63-234.245C771.763,147.592,773.666,147.359,775.409,148.486Z"/>
  <path id="Прямоугольник_1" data-name="Прямоугольник 1" class="cls-3" d="M403-2H620.016a3,3,0,0,1,3,3V999a3,3,0,0,1-3,3H403a3,3,0,0,1-3-3V1A3,3,0,0,1,403-2Z"/>
</svg>
